HIERARCHY
ROOT Hips
{
	OFFSET 0.000000 0.000000 0.000000
	CHANNELS 6 Xposition Yposition Zposition Xrotation Yrotation Zrotation
	JOINT LeftUpLeg_virtual
	{
		OFFSET 0.000000 0.000000 0.000000
		CHANNELS 3 Xrotation Yrotation Zrotation
		JOINT LeftUpLeg
		{
			OFFSET 15.427100 -6.655098 0.678600
			CHANNELS 3 Xrotation Yrotation Zrotation
			JOINT LeftLeg
			{
				OFFSET 4.081073 -39.591068 13.024000
				CHANNELS 3 Xrotation Yrotation Zrotation
				JOINT LeftFoot
				{
					OFFSET -4.081074 -37.707932 -15.979700
					CHANNELS 3 Xrotation Yrotation Zrotation
					JOINT LeftToeBase
					{
						OFFSET 5.346399 -15.068900 20.645000
						CHANNELS 3 Xrotation Yrotation Zrotation
						JOINT LeftToe_End
						{
							OFFSET 2.754700 0.931300 11.300900
							CHANNELS 3 Xrotation Yrotation Zrotation
							End Site
							{
								OFFSET 0 0 0
							}
						}
					}
				}
			}
		}
	}
	JOINT RightUpLeg_virtual
	{
		OFFSET 0.000000 0.000000 0.000000
		CHANNELS 3 Xrotation Yrotation Zrotation
		JOINT RightUpLeg
		{
			OFFSET -15.569500 -6.655098 0.678600
			CHANNELS 3 Xrotation Yrotation Zrotation
			JOINT RightLeg
			{
				OFFSET -4.081825 -39.591045 13.023800
				CHANNELS 3 Xrotation Yrotation Zrotation
				JOINT RightFoot
				{
					OFFSET 4.081824 -37.707954 -15.979600
					CHANNELS 3 Xrotation Yrotation Zrotation
					JOINT RightToeBase
					{
						OFFSET -5.346400 -15.068900 20.645000
						CHANNELS 3 Xrotation Yrotation Zrotation
						JOINT RightToe_End
						{
							OFFSET -2.754700 0.931300 11.300900
							CHANNELS 3 Xrotation Yrotation Zrotation
							End Site
							{
								OFFSET 0 0 0
							}
						}
					}
				}
			}
		}
	}
	JOINT Spine_virtual
	{
		OFFSET 0.000000 0.000000 0.000000
		CHANNELS 3 Xrotation Yrotation Zrotation
		JOINT Spine
		{
			OFFSET -0.279200 12.230698 -2.892100
			CHANNELS 3 Xrotation Yrotation Zrotation
			JOINT Spine1
			{
				OFFSET -0.232667 10.192268 -1.242267
				CHANNELS 3 Xrotation Yrotation Zrotation
				JOINT Spine1_split
				{
					OFFSET -0.232667 10.192268 -1.242267
					CHANNELS 3 Xrotation Yrotation Zrotation
					JOINT Spine2
					{
						OFFSET -0.232667 10.192268 -1.242267
						CHANNELS 3 Xrotation Yrotation Zrotation
						JOINT Neck_virtual
						{
							OFFSET 0.000000 0.000000 0.000000
							CHANNELS 3 Xrotation Yrotation Zrotation
							JOINT Neck
							{
								OFFSET -0.418800 17.814194 8.416900
								CHANNELS 3 Xrotation Yrotation Zrotation
								JOINT Head
								{
									OFFSET 0.000000 7.031097 3.806800
									CHANNELS 3 Xrotation Yrotation Zrotation
									JOINT HeadTop_End
									{
										OFFSET 0.000000 24.646606 12.978600
										CHANNELS 3 Xrotation Yrotation Zrotation
										End Site
										{
											OFFSET 0 0 0
										}
									}
								}
							}
						}
						JOINT LeftShoulder_virtual
						{
							OFFSET 0.000000 0.000000 0.000000
							CHANNELS 3 Xrotation Yrotation Zrotation
							JOINT LeftShoulder
							{
								OFFSET 8.476499 7.247704 -3.868750
								CHANNELS 3 Xrotation Yrotation Zrotation
								JOINT LeftShoulder_split
								{
									OFFSET 8.476499 7.247704 -3.868750
									CHANNELS 3 Xrotation Yrotation Zrotation
									JOINT LeftArm
									{
										OFFSET 9.308998 -2.777710 0.208600
										CHANNELS 3 Xrotation Yrotation Zrotation
										JOINT LeftForeArm
										{
											OFFSET 29.972298 0.000000 0.000000
											CHANNELS 3 Xrotation Yrotation Zrotation
											JOINT LeftHand
											{
												OFFSET 26.026505 0.000000 0.000000
												CHANNELS 3 Xrotation Yrotation Zrotation
												End Site
												{
													OFFSET 0 0 0
												}
											}
										}
									}
								}
							}
						}
						JOINT RightShoulder_virtual
						{
							OFFSET 0.000000 0.000000 0.000000
							CHANNELS 3 Xrotation Yrotation Zrotation
							JOINT RightShoulder
							{
								OFFSET -7.570500 7.247704 -3.868750
								CHANNELS 3 Xrotation Yrotation Zrotation
								JOINT RightShoulder_split
								{
									OFFSET -7.570500 7.247704 -3.868750
									CHANNELS 3 Xrotation Yrotation Zrotation
									JOINT RightArm
									{
										OFFSET -9.308998 -2.777710 0.208500
										CHANNELS 3 Xrotation Yrotation Zrotation
										JOINT RightForeArm
										{
											OFFSET -29.972300 0.000000 0.000000
											CHANNELS 3 Xrotation Yrotation Zrotation
											JOINT RightHand
											{
												OFFSET -26.026505 0.000000 0.000000
												CHANNELS 3 Xrotation Yrotation Zrotation
												End Site
												{
													OFFSET 0 0 0
												}
											}
										}
									}
								}
							}
						}
					}
				}
			}
		}
	}
}
MOTION
Frames: 4
Frame Time: 0.03333333
-9.171736 59.428078 14.208389 0.000000 0.000000 0.000000 8.205290 35.987239 -3.912574 -89.910950 -9.437964 -29.298602 39.398761 -43.466637 2.225163 27.809018 -4.410442 -17.570576 -4.806151 0.558440 1.024795 0.000000 0.000000 0.000000 10.243195 39.788434 -5.799305 41.655360 -30.403091 8.904679 26.023697 17.132611 -7.163736 -17.322140 -1.793520 3.219888 -45.041184 -4.891136 7.531607 0.000000 0.000000 0.000000 12.790574 41.843791 -8.334063 5.532551 16.235775 -0.737901 3.198136 16.331042 0.058087 1.409503 0.655246 0.934844 0.000000 0.000000 0.000000 2.245361 15.491880 -0.570261 17.159028 -31.293434 2.295949 -22.504804 -35.825527 -1.573304 0.000000 0.000000 0.000000 2.855120 16.357039 -0.659813 2.061792 -4.321722 -6.751366 -3.381439 -7.238453 -2.986894 -32.521355 9.507953 -24.601896 50.749374 -3.814108 17.595710 0.000000 0.000000 0.000000 3.626598 16.589192 -0.898324 0.262857 8.651815 -14.473912 -4.658709 4.854110 2.863770 -17.158089 -18.702465 3.039700 -34.008915 30.567077 10.583231 0.000000 0.000000 0.000000 
-8.921018 60.125988 14.306458 0.000000 0.000000 0.000000 8.641699 34.953247 -4.323247 -89.050634 -10.159087 -27.500058 41.614560 -41.913982 3.001792 26.749526 -4.974537 -16.872208 -5.165251 0.506360 1.331000 0.000000 0.000000 0.000000 10.654448 38.957685 -6.127265 39.636517 -29.424841 7.425362 29.420541 16.664357 -7.676177 -20.307802 -2.087983 1.272578 -43.224685 -4.562218 7.482944 0.000000 0.000000 0.000000 13.143184 41.402551 -9.012087 5.603383 15.684131 -0.347282 3.456518 15.933573 -0.224897 1.364484 0.424156 1.024103 0.000000 0.000000 0.000000 2.448254 15.059548 -0.890811 16.100612 -30.881205 1.607219 -22.407388 -37.332981 -0.564381 0.000000 0.000000 0.000000 3.101944 15.883076 -1.005962 1.962519 -4.665958 -6.501638 -4.340269 -7.311028 -2.303802 -26.795937 13.247824 -23.941888 50.600886 -3.527156 18.975906 0.000000 0.000000 0.000000 3.693752 16.169407 -1.072515 0.079702 7.696133 -14.825803 -5.123353 4.025236 2.249381 -22.031422 -16.935205 3.839145 -33.180093 31.659484 12.936743 0.000000 0.000000 0.000000 
-8.572732 61.032921 14.296749 0.000000 0.000000 0.000000 8.619751 32.863858 -4.507242 -87.630583 -10.590192 -24.914935 44.167012 -39.820799 3.330568 25.128765 -5.301911 -15.385430 -5.716072 0.430287 1.647056 0.000000 0.000000 0.000000 10.363987 36.855663 -6.081359 36.877868 -28.549318 5.082828 33.095548 16.637741 -7.945386 -22.256006 -2.165942 0.183208 -42.460595 -4.294823 7.343670 0.000000 0.000000 0.000000 12.728097 39.885132 -9.152451 5.929193 14.875607 0.077083 3.767394 15.518492 -0.453551 0.931615 0.602855 0.834498 0.000000 0.000000 0.000000 2.774832 14.639220 -1.107402 14.473017 -30.237411 0.724177 -22.269261 -38.314984 0.390108 0.000000 0.000000 0.000000 3.298846 15.473254 -1.251031 1.735400 -4.538130 -5.901273 -5.240076 -7.770143 -1.718812 -20.312604 17.468484 -23.776158 50.390568 -2.375102 20.013006 0.000000 0.000000 0.000000 3.740804 15.759044 -1.185379 -0.388798 6.257805 -15.856115 -4.531195 3.530133 1.552690 -29.475108 -12.952120 5.623159 -31.353369 31.622362 14.263858 0.000000 0.000000 0.000000 
-8.088152 62.133450 14.139572 0.000000 0.000000 0.000000 8.218884 29.901127 -4.316990 -85.847166 -10.607291 -21.800241 46.695217 -37.338325 3.035405 23.338661 -5.491782 -13.285037 -6.107464 0.353946 1.885620 0.000000 0.000000 0.000000 9.598885 33.669954 -5.643135 33.545351 -27.907012 1.865044 36.748853 17.201406 -7.959248 -23.069580 -2.032419 0.443228 -43.089088 -4.188995 7.136702 0.000000 0.000000 0.000000 11.565474 37.194663 -8.537272 6.563049 13.886464 0.434648 4.110030 15.107443 -0.606573 0.565534 0.952186 0.644572 0.000000 0.000000 0.000000 3.057914 14.232659 -1.212632 12.584546 -29.221926 -0.100201 -22.153375 -38.339163 1.113287 0.000000 0.000000 0.000000 3.406106 15.103739 -1.402776 1.418883 -3.849317 -5.051831 -6.031050 -8.355956 -1.457080 -13.005081 21.910443 -24.601358 50.028776 -0.583901 20.849574 0.000000 0.000000 0.000000 3.852940 15.415643 -1.252648 -1.012711 4.657323 -17.011821 -3.207170 3.453469 1.040970 -37.804783 -6.794694 8.823978 -28.204868 29.966608 14.015471 0.000000 0.000000 0.000000 
